<?xml version="1.0" encoding="UTF-8"?>
<svg xmlns="http://www.w3.org/2000/svg" width="45.366" height="46.5" viewBox="0 0 45.366 46.5">
	<style>
		g { display: none }
		defs g { display: block }
		g:target { display: block }
		g.vis { display: block }
	</style>
	<defs>
		<g id="brush">
			<path d="M37,25h-16l-1.298-2.272c-1.115-1.952-1.702-4.16-1.702-6.408v-.32h16v.32c0,2.248.587,4.456,1.702,6.408l1.298,2.272Z"
				  fill="#fff" stroke="#000" stroke-miterlimit="10"/>
			<path d="M36,29h1.047c1.217,0,1.911-1.389,1.181-2.362l-1.228-1.638h-16l2.225,2.966c.488.651,1.254,1.034,2.067,1.034h1.708l9.441,14.591c.972,1.502,2.639,2.409,4.427,2.409h1.442c2.022,0,3.24-2.24,2.142-3.937l-8.453-13.063Z"
				  fill="#fff" stroke="#000" stroke-miterlimit="10"/>
			<rect x="21" y="18" width="6" height="1"/>
			<rect x="29" y="18" width="5" height="1"/>
		</g>
		<g id="pola">
			<rect x="0.5" y="0.5" width="35" height="40" fill="#fff" stroke="#000" stroke-miterlimit="10"/>
			<rect x="3" y="3" width="30" height="30"/>
		</g>
		<path id="alpha" d="M14 0 s 0, 12 -6, 12 -7 -6 -7 -6 c 0,0,0 -6, 6 -6 s8, 12, 9, 13"
			  fill="none" stroke-width="2" stroke-miterlimit="10" />
		<g id="page">
			<polygon points="39.5 44.5 7.5 44.5 7.5 1.5 28.906 1.5 39.5 11.594 39.5 44.5" fill="#fff" stroke="#000" />
			<path d="M 28.5 3.5 v 9 h9" fill="none" stroke="#000" />
		</g>
	</defs>
	<g id="unknown">
		<path d="M26.886,28.081c-.629,1.73-2.254,2.899-4.095,2.899h-7.178v-1.084c0-1.843.209-3.34.628-4.49.418-1.149,1.04-2.2,1.867-3.15.827-.95,2.685-2.623,5.574-5.018,1.539-1.255,2.31-2.404,2.31-3.45s-.31-1.857-.927-2.438c-.618-.58-1.554-.87-2.809-.87-1.35,0-2.466.447-3.35,1.34-.382.385-.704.895-.967,1.528-.753,1.812-2.609,2.916-4.557,2.675l-2.405-.297c-2.856-.353-4.65-3.358-3.488-5.99.743-1.684,1.773-3.161,3.091-4.43,2.576-2.481,6.524-3.721,11.847-3.721,4.144,0,7.489.865,10.036,2.595,3.46,2.338,5.189,5.456,5.189,9.352,0,1.616-.447,3.174-1.34,4.676-.894,1.502-2.719,3.336-5.475,5.503-1.92,1.521-3.132,2.742-3.635,3.664-.12.22-.226.456-.318.708ZM19.595,33.859h2.9c2.404,0,4.352,1.949,4.352,4.352v1.531c0,2.404-1.949,4.352-4.352,4.352h-2.9c-2.404,0-4.352-1.949-4.352-4.352v-1.531c0-2.404,1.949-4.352,4.352-4.352Z"
			  fill="none" stroke="#000" stroke-dasharray="2 2"/>
	</g>
	<g id="StrokePaint">
		<polyline points="34 16 34 2 17 2 2 2 2 41 17 41 17 16" fill="none" stroke="#000" stroke-miterlimit="10"
				  stroke-width="4"/>
		<use href="#brush"/>
	</g>
	<g id="FillPaint">
		<use href="#brush"/>
		<polygon points="17 0 0 0 0 41 17 41 17 16 34 16 34 0 17 0"/>
	</g>
	<g id="BackgroundAlpha">
		<use href="#pola" x="5" y="3" />
		<rect x="11.5" y="8.5" width="24" height="24" stroke="#fff" stroke-width="1" stroke-dasharray="4" stroke-dashoffset="2" />
		<use href="#alpha" stroke="#fff" x="15" y="15" />
	</g>
	<g id="BackgroundImage">
		<use href="#pola" x="5" y="3" />
		<circle cx="27" cy="16" r="8" fill="#fff"/>
		<polygon points="10 33 10 22 17 18 27 18 27 33 10 33" fill="#fff"/>
		<polyline points="16 17 28 17 28 27" fill="none" stroke="#000" stroke-miterlimit="10" stroke-width="2"/>
	</g>
	<g id="SourceAlpha">
		<use href="#page" />
		<rect x="12" y="18" width="23" height="23" fill="none" stroke="#000" stroke-dasharray="2" stroke-dashoffset="2" />
		<use href="#alpha" x="15" y="24" stroke="#000" />
	</g>
	<g id="SourceGraphic">
		<use href="#page" />
		<path d="
		M 27.5 3.5 v 10 h 10

		M 11.5 12 v-5
		M 13.5 12 v-4
		M 15.5 12 v-4
		M 17.5 12 v-4
		M 19.5 12 v-5
		M 21.5 12 v-4

		M 11 16.5 h 12
		M 11 18.5 h 12
		M 11 20.5 h 12
		M 11 22.5 h 12
		M 11 24.5 h 6
		M 11 26.5 h 12
		M 11 28.5 h 12
		M 11 30.5 h 26
		M 11 32.5 h 26
		M 11 34.5 h 17
		M 11 36.5 h 26
		M 11 38.5 h 26
		M 11 40.5 h 17
		" fill="none" stroke="#000" stroke-miterlimit="10"/>
		<rect x="27" y="18" width="8" height="9" fill="none" stroke="#000" stroke-width="2"/>
	</g>
</svg>