<?xml version="1.0" encoding="UTF-8"?>
<svg xmlns="http://www.w3.org/2000/svg" viewBox="0 0 48 48" width="48" height="48">
	<defs>
		<g id="docFill">
			<path d="
				M 0 0 h 15 v 10 h 10 v 20 h -24 Z
				M 17 0 v 8 h 8 Z
			"/>
		</g>
		<g id="docLine">
			<path d="
				M 0 0 h 15 l 10 10 v 20 h -24 Z
				M 15 0 v 10 h 10
			"/>
		</g>
		<path id="alpha" d="
		M 14 1
		s  0 12
		  -6 12
		  -7 -6
		  -7 -6
		c 0  0
		  0 -6,
		  6 -6
		s 8 12
		  9, 13" />
		<path id="photo" d="
			M 0 0 h 28 v 29 h -28 Z
			M 2 2 v 21 h 24 v -22 Z
		" />
		<g id="bucket">
			<path d="
			M 3 4
			a 12 4 0 0 1 24 0
			v 2
			l 1 1
			v 1
			l -1 1
			v 16
			a 12 4 0 0 1 -24 0
			v -16
			l -1 -1
			v -2
			l 1 -1
			Z
		" stroke="#000" fill="#fff" stroke-width="2" />
			<path d="
			M 4 6
			a 12 4 0 0 0 22 0
		" stroke="#000" fill="#fff" />
			<path d="
			M 1 8
			a 12 12 0 0 0 28 0
		" fill="none" stroke="#000" stroke-width="2" />
			<ellipse cx="15" cy="4" rx="9" ry="2" fill="#000"/>
		</g>
		<path id="qm" d="m11.4,21.5h-2c-2.1,0-3.7-2.1-3-4.1s0,0,0,0c.3-.8.8-1.6,1.4-2.3.6-.7,2-1.9,4.1-3.7,1.1-.9,1.7-1.8,1.7-2.5s-.2-1.4-.7-1.8c-.5-.4-1.1-.6-2.1-.6s-1.8.3-2.5,1-.4.5-.6.8c-.7,1.5-2.2,2.4-3.9,2.2h-.6C.8,10.1-.8,7.3.5,5s1.1-1.6,1.8-2.3C4.1.9,7,0,10.9,0s5.5.6,7.4,1.9c2.5,1.7,3.8,4,3.8,6.9s-.3,2.3-1,3.4c-.7,1.1-2,2.4-4,4-1.4,1.1-2.3,2-2.7,2.7s-.2.4-.2.5c-.4,1.2-1.5,2.1-2.8,2.1Zm-2,2.1h1c2.1,0,3.8,1.9,3.8,4.2h0c0,2.3-1.7,4.2-3.8,4.2h-1c-2.1,0-3.8-1.9-3.8-4.2h0c0-2.3,1.7-4.2,3.8-4.2Z" />
		<style>
			g { display:none; }
			g.vis, defs g, g:target { display: block }
		</style>
	</defs>

	<g id="SourceGraphic">
		<use href="#docLine" x="12" y="8" fill="none" stroke="#000"/>
		<path d="
			M 15 15 h 9
			M 15 18 h 9
			M 15 21 h 9
			M 15 24 h 9
			M 15 27 h 9
			M 15 30 h 9
			M 15 33 h 18

			M 26 22 h 8 v 8 h -8 Z
		" fill="none" stroke="#000"/>
	</g>

	<g id="SourceAlpha">
		<use href="#docFill" x="12" y="8" fill="#000" />
		<use href="#alpha" x="17" y="21" stroke="#fff" stroke-width="2" />
	</g>

	<g id="BackgroundImage">
		<use href="#photo" x="10" y="10" fill="#000" />
		<path d="M 13 32
			v -5
			l 5 -5
			l 5 3
			l 5 -7
			l 6 10
			l 1 -3
			v 7 z
		" fill="#000" />
		<circle cx="21" cy="18" r="3" fill="#000"/>
	</g>

	<g id="BackgroundAlpha">
		<use href="#photo" x="10" y="10" fill="#000" />
		<rect x="13" y="13" width="22" height="19" fill="#000"/>
		<circle cx="21" cy="18" r="3" fill="#000"/>
		<use href="#alpha" x="16" y="15" stroke="#fff" stroke-width="2" />
	</g>

	<g id="FillPaint">
		<use href="#bucket" x="9" y="10" />
		<rect x="17" y="21" width="14" height="14" rx="0" ry="0" fill="#000"/>
		<path d="
			M 14 30
			a 9 3 0 0 0 20 0
		" fill="none" stroke="#fff"/>
	</g>

	<g id="StrokePaint">
		<use href="#bucket" x="9" y="10" />
		<rect x="18" y="22" width="12" height="13" rx="2" ry="2" fill="none" stroke="#000" stroke-width="3"/>
		<path d="
			M 14 30
			a 9 3 0 0 0 20 0
		" fill="none" stroke="#fff" />
	</g>

	<g id="unknown">
		<use href="#qm" fill="none" x="13" y="8" stroke="#000" stroke-width="2" stroke-dasharray="4 2" />
	</g>

</svg>